<svg xmlns="http://www.w3.org/2000/svg" xmlns:xlink="http://www.w3.org/1999/xlink" width="667" zoomAndPan="magnify" viewBox="0 0 500.25 148.499996" height="198" preserveAspectRatio="xMidYMid meet" version="1.0"><defs><g/><clipPath id="f6dd2ab2ac"><path d="M 0.0625 0.570312 L 425.109375 0.570312 L 425.109375 107.011719 L 0.0625 107.011719 Z M 0.0625 0.570312 " clip-rule="nonzero"/></clipPath><clipPath id="dc0d8a3c33"><rect x="0" width="426" y="0" height="108"/></clipPath><clipPath id="8ba507ba9d"><path d="M 225.234375 26.191406 L 237.070312 26.191406 L 237.070312 37.445312 L 225.234375 37.445312 Z M 225.234375 26.191406 " clip-rule="nonzero"/></clipPath><clipPath id="341d3baa04"><path d="M 0.234375 0.191406 L 12.070312 0.191406 L 12.070312 11.445312 L 0.234375 11.445312 Z M 0.234375 0.191406 " clip-rule="nonzero"/></clipPath><clipPath id="1691f79f47"><rect x="0" width="13" y="0" height="12"/></clipPath><clipPath id="d33da06bf0"><rect x="0" width="426" y="0" height="108"/></clipPath></defs><g transform="matrix(1, 0, 0, 1, 37, 20)"><g clip-path="url(#d33da06bf0)"><g clip-path="url(#f6dd2ab2ac)"><g><g clip-path="url(#dc0d8a3c33)"><g fill="#00bf63" fill-opacity="1"><g transform="translate(1.082902, 83.547486)"><g><path d="M 39.796875 0 L 21.09375 -19.859375 L 15.265625 -13.953125 L 15.265625 0 L 2.46875 0 L 2.46875 -53.328125 L 15.265625 -53.328125 L 15.265625 -32.078125 L 36.515625 -53.328125 L 54.640625 -53.328125 L 30.1875 -28.96875 L 57.921875 0 Z M 39.796875 0 "/></g></g></g><g fill="#00bf63" fill-opacity="1"><g transform="translate(59.817054, 83.547486)"><g><path d="M 13.953125 -35.9375 C 14.878906 -38.5625 16.4375 -40.394531 18.625 -41.4375 C 20.757812 -42.476562 23.957031 -43 28.21875 -43 L 28.21875 -31.265625 C 24.0625 -31.265625 20.585938 -29.84375 17.796875 -27 C 15.234375 -24.476562 13.953125 -21.710938 13.953125 -18.703125 L 13.953125 0 L 2.46875 0 L 2.46875 -42.25 L 13.953125 -42.25 Z M 13.953125 -35.9375 "/></g></g></g><g fill="#00bf63" fill-opacity="1"><g transform="translate(89.266165, 83.547486)"><g><path d="M 2.46875 -42.421875 L 13.125 -42.421875 L 13.125 -21.09375 C 13.125 -20.269531 13.257812 -19.335938 13.53125 -18.296875 C 13.863281 -17.035156 14.359375 -15.882812 15.015625 -14.84375 C 16.816406 -12.113281 19.390625 -10.75 22.734375 -10.75 C 26.390625 -10.75 29.039062 -12.144531 30.6875 -14.9375 C 31.289062 -15.914062 31.726562 -17.0625 32 -18.375 C 32.21875 -19.300781 32.328125 -20.234375 32.328125 -21.171875 L 32.328125 -42.421875 L 43.8125 -42.421875 L 43.8125 0 L 32.328125 0 L 32.328125 -4.4375 C 29.648438 -1.476562 26.203125 0 21.984375 0 C 16.566406 0.0507812 11.972656 -1.890625 8.203125 -5.828125 C 4.378906 -9.710938 2.46875 -14.523438 2.46875 -20.265625 Z M 2.46875 -42.421875 "/></g></g></g><g fill="#00bf63" fill-opacity="1"><g transform="translate(135.531614, 83.547486)"><g><path d="M 19.53125 0 C 16.6875 0 14.195312 -0.4375 12.0625 -1.3125 C 10.363281 -1.914062 8.613281 -3.035156 6.8125 -4.671875 C 3.695312 -7.578125 2.273438 -11.242188 2.546875 -15.671875 L 2.546875 -16.578125 L 11.734375 -16.40625 L 12.46875 -16.40625 L 12.46875 -15.75 C 12.519531 -14.382812 12.820312 -13.265625 13.375 -12.390625 C 14.300781 -10.804688 16.351562 -10.015625 19.53125 -10.015625 C 22.15625 -10.015625 24.039062 -10.3125 25.1875 -10.90625 C 25.789062 -11.1875 26.203125 -11.546875 26.421875 -11.984375 C 26.523438 -12.140625 26.578125 -12.300781 26.578125 -12.46875 L 26.671875 -12.875 C 26.671875 -14.03125 25.765625 -14.960938 23.953125 -15.671875 C 23.242188 -15.941406 22.425781 -16.160156 21.5 -16.328125 C 20.789062 -16.492188 19.992188 -16.628906 19.109375 -16.734375 C 15.828125 -17.066406 13.09375 -17.722656 10.90625 -18.703125 C 8.71875 -19.578125 6.914062 -20.78125 5.5 -22.3125 C 3.53125 -24.5625 2.546875 -27.132812 2.546875 -30.03125 C 2.546875 -31.832031 2.875 -33.5 3.53125 -35.03125 C 4.019531 -36.238281 4.675781 -37.304688 5.5 -38.234375 C 8.445312 -41.628906 13.175781 -43.328125 19.6875 -43.328125 C 23.570312 -43.328125 26.851562 -42.5625 29.53125 -41.03125 C 31.613281 -39.875 33.285156 -38.3125 34.546875 -36.34375 C 35.523438 -34.863281 36.207031 -33.140625 36.59375 -31.171875 C 36.695312 -30.515625 36.78125 -29.890625 36.84375 -29.296875 L 36.84375 -27.5625 L 26.90625 -27.5625 L 26.90625 -28.796875 C 26.851562 -29.015625 26.828125 -29.234375 26.828125 -29.453125 C 26.660156 -30.054688 26.441406 -30.550781 26.171875 -30.9375 C 24.972656 -32.570312 22.8125 -33.390625 19.6875 -33.390625 C 15.09375 -33.390625 12.796875 -32.429688 12.796875 -30.515625 C 12.796875 -29.535156 13.34375 -28.742188 14.4375 -28.140625 C 15.582031 -27.429688 17.523438 -26.910156 20.265625 -26.578125 C 26.554688 -25.921875 31.125 -23.925781 33.96875 -20.59375 C 35.882812 -18.351562 36.84375 -15.78125 36.84375 -12.875 L 36.84375 -12.3125 L 36.75 -11.5625 C 36.75 -10.851562 36.671875 -10.195312 36.515625 -9.59375 C 36.078125 -7.84375 35.253906 -6.285156 34.046875 -4.921875 C 32.679688 -3.285156 30.769531 -2.054688 28.3125 -1.234375 C 25.84375 -0.410156 22.914062 0 19.53125 0 Z M 19.53125 0 "/></g></g></g><g fill="#00bf63" fill-opacity="1"><g transform="translate(174.824439, 83.547486)"><g><path d="M 45.53125 0 L 34.875 0 L 34.875 -20.84375 L 34.78125 -20.84375 L 34.78125 -21.09375 C 34.78125 -23.9375 33.769531 -26.367188 31.75 -28.390625 C 29.726562 -30.410156 27.269531 -31.421875 24.375 -31.421875 C 21.519531 -31.421875 19.054688 -30.382812 16.984375 -28.3125 C 14.898438 -26.226562 13.914062 -23.765625 14.03125 -20.921875 L 14.03125 -20.84375 L 13.953125 -20.84375 L 13.953125 0 L 2.46875 0 L 2.46875 -53.328125 L 13.953125 -53.328125 L 13.953125 -36.921875 C 16.515625 -39.984375 19.957031 -41.707031 24.28125 -42.09375 C 30.300781 -42.582031 35.28125 -41.019531 39.21875 -37.40625 C 43.425781 -33.53125 45.53125 -28.09375 45.53125 -21.09375 Z M 45.53125 0 "/></g></g></g><g fill="#00bf63" fill-opacity="1"><g transform="translate(222.812533, 83.547486)"><g><path d="M 13.859375 -57.1875 L 13.859375 -47.5 L 2.46875 -47.5 L 2.46875 -57.1875 Z M 13.953125 -42.171875 L 13.953125 0 L 2.46875 0 L 2.46875 -42.171875 Z M 13.953125 -42.171875 "/></g></g></g><g fill="#000000" fill-opacity="1"><g transform="translate(239.219498, 83.547486)"><g><path d="M 42.25 -42.34375 L 25.59375 1.890625 C 23.789062 6.265625 20.921875 9.738281 16.984375 12.3125 C 13.046875 14.875 8.753906 16.101562 4.109375 16 L 4.109375 4.515625 C 5.796875 4.566406 7.488281 4.210938 9.1875 3.453125 C 11.59375 2.359375 13.398438 0.632812 14.609375 -1.71875 L 16.90625 -8.046875 L 2.46875 -42.34375 L 15.09375 -42.34375 L 22.734375 -23.875 L 29.53125 -42.34375 Z M 42.25 -42.34375 "/></g></g></g><g fill="#000000" fill-opacity="1"><g transform="translate(284.0084, 83.547486)"><g><path d="M 2.46875 -42.421875 L 13.125 -42.421875 L 13.125 -21.09375 C 13.125 -20.269531 13.257812 -19.335938 13.53125 -18.296875 C 13.863281 -17.035156 14.359375 -15.882812 15.015625 -14.84375 C 16.816406 -12.113281 19.390625 -10.75 22.734375 -10.75 C 26.390625 -10.75 29.039062 -12.144531 30.6875 -14.9375 C 31.289062 -15.914062 31.726562 -17.0625 32 -18.375 C 32.21875 -19.300781 32.328125 -20.234375 32.328125 -21.171875 L 32.328125 -42.421875 L 43.8125 -42.421875 L 43.8125 0 L 32.328125 0 L 32.328125 -4.4375 C 29.648438 -1.476562 26.203125 0 21.984375 0 C 16.566406 0.0507812 11.972656 -1.890625 8.203125 -5.828125 C 4.378906 -9.710938 2.46875 -14.523438 2.46875 -20.265625 Z M 2.46875 -42.421875 "/></g></g></g><g fill="#000000" fill-opacity="1"><g transform="translate(330.273849, 83.547486)"><g><path d="M 33.96875 -42.34375 L 44.71875 -42.34375 L 44.71875 -0.078125 C 44.71875 5.710938 42.664062 10.660156 38.5625 14.765625 C 34.507812 18.867188 29.585938 20.945312 23.796875 21 C 18.378906 21.0625 13.644531 19.285156 9.59375 15.671875 C 5.601562 12.171875 3.304688 7.769531 2.703125 2.46875 L 13.53125 2.46875 C 13.914062 4.21875 14.847656 5.828125 16.328125 7.296875 C 18.347656 9.328125 20.8125 10.34375 23.71875 10.34375 C 26.613281 10.34375 29.046875 9.300781 31.015625 7.21875 C 33.035156 5.195312 34.046875 2.765625 34.046875 -0.078125 L 33.96875 -4.265625 C 31.175781 -1.472656 27.785156 -0.078125 23.796875 -0.078125 C 17.941406 -0.0234375 12.9375 -2.050781 8.78125 -6.15625 C 4.625 -10.257812 2.546875 -15.238281 2.546875 -21.09375 C 2.492188 -26.9375 4.515625 -31.910156 8.609375 -36.015625 C 12.710938 -40.171875 17.691406 -42.28125 23.546875 -42.34375 C 28.191406 -42.34375 31.664062 -40.890625 33.96875 -37.984375 Z M 33.96875 -22.40625 C 33.75 -24.8125 32.738281 -26.890625 30.9375 -28.640625 C 28.851562 -30.609375 26.390625 -31.59375 23.546875 -31.59375 C 20.703125 -31.59375 18.269531 -30.578125 16.25 -28.546875 C 14.21875 -26.421875 13.203125 -23.960938 13.203125 -21.171875 C 13.203125 -18.328125 14.242188 -15.863281 16.328125 -13.78125 C 18.347656 -11.757812 20.8125 -10.75 23.71875 -10.75 C 26.664062 -10.851562 29.097656 -11.890625 31.015625 -13.859375 C 32.710938 -15.554688 33.695312 -17.582031 33.96875 -19.9375 Z M 33.96875 -22.40625 "/></g></g></g><g fill="#000000" fill-opacity="1"><g transform="translate(377.441644, 83.547486)"><g><path d="M 32.8125 -42.421875 L 44.3125 -42.421875 L 44.3125 0 L 32.8125 0 L 32.8125 -4.765625 C 30.46875 -1.703125 26.914062 -0.171875 22.15625 -0.171875 C 16.351562 -0.109375 11.375 -2.128906 7.21875 -6.234375 C 3.0625 -10.335938 0.957031 -15.316406 0.90625 -21.171875 C 0.851562 -26.960938 2.875 -31.9375 6.96875 -36.09375 C 11.070312 -40.257812 16.050781 -42.367188 21.90625 -42.421875 C 26.71875 -42.421875 30.351562 -40.859375 32.8125 -37.734375 Z M 29.375 -13.953125 C 31.394531 -15.972656 32.40625 -18.429688 32.40625 -21.328125 C 32.40625 -24.285156 31.367188 -26.75 29.296875 -28.71875 C 27.210938 -30.789062 24.773438 -31.773438 21.984375 -31.671875 C 19.085938 -31.671875 16.628906 -30.660156 14.609375 -28.640625 C 12.578125 -26.609375 11.5625 -24.144531 11.5625 -21.25 C 11.5625 -18.40625 12.601562 -15.941406 14.6875 -13.859375 C 16.707031 -11.835938 19.171875 -10.828125 22.078125 -10.828125 C 25.023438 -10.941406 27.457031 -11.984375 29.375 -13.953125 Z M 29.375 -13.953125 "/></g></g></g></g></g></g><g clip-path="url(#8ba507ba9d)"><g transform="matrix(1, 0, 0, 1, 225, 26)"><g clip-path="url(#1691f79f47)"><g clip-path="url(#341d3baa04)"><path fill="#ffb703" d="M 0.234375 0.191406 L 12.058594 0.191406 L 12.058594 11.445312 L 0.234375 11.445312 Z M 0.234375 0.191406 " fill-opacity="1" fill-rule="nonzero"/></g></g></g></g></g></g></svg>